<?xml version="1.0" encoding="utf-8"?>
<!-- Generator: Adobe Illustrator 18.0.0, SVG Export Plug-In . SVG Version: 6.00 Build 0)  -->
<!DOCTYPE svg PUBLIC "-//W3C//DTD SVG 1.1//EN" "http://www.w3.org/Graphics/SVG/1.1/DTD/svg11.dtd">
<svg version="1.1" id="Layer_1" xmlns="http://www.w3.org/2000/svg" xmlns:xlink="http://www.w3.org/1999/xlink" x="0px" y="0px"
	 viewBox="57.4 -10.5 446.3 814.4" enable-background="new 57.4 -10.5 446.3 814.4" xml:space="preserve">
<g id="XMLID_1_">
	<path fill="#FFFFFF" d="M198.7,797.4C97.4,770.5,36.9,666.2,63.8,565c13.4-50.1,48.9-94.4,96.1-119.9l96.7-363.2
		c8.6-32.1,29.4-59,58.6-75.7c29.1-16.6,62.8-21,94.9-12.5s59.2,29.2,76.2,58c17.1,29,21.8,62.7,13.2,94.8l-95.3,357.9
		c14.9,21.3,25.3,45.7,30.5,71c5.8,28.8,4.8,59-2.9,87.5c-13,48.8-44.5,89.8-88.7,115.2C298.9,803.7,247.7,810.5,198.7,797.4z"/>
</g>
<path id="XMLID_8_" fill="#5ADCFF" d="M382.9,508.6l97.7-367c14.9-56-19.5-114.1-75.5-129S290.4,30.9,275.5,86.9l-99,371.6
	C132,480,95.9,520.5,82.7,570c-24.2,90.8,30.3,184.4,121,208.6S388.8,748.8,413,658C427.1,605.7,415.7,550.6,382.9,508.6z
	 M215.3,735.9C148,718,107.8,648.6,125.7,581.2c10.5-39.4,39.7-71.4,77.9-85.8c7.5-2.9,12.6-9.3,13.8-16.8c0.2-0.7,0.4-1.4,0.6-2.2
	L318.7,98.5c8.7-32.6,42.2-51.8,74.8-43.2S445.6,97.6,437,130L336.3,508c-1.8,6.8-0.5,14.4,4.5,20.1c0,0,0,0,0.2,0.3l0.2,0.3
	c29.2,32.1,40,76.1,28.9,117.8C352.1,713.7,282.7,753.9,215.3,735.9z"/>
<path id="XMLID_4_" fill="#770039" d="M235,549.3l68.4-256.9c3.7-13.8,17.7-21.9,31.5-18.2l0,0c13.8,3.7,21.9,17.7,18.2,31.5
	l-68.4,256.9"/>
<path id="XMLID_25_" fill="#770039" d="M235,549.3l68.4-256.9c3.7-13.8,17.7-21.9,31.5-18.2l0,0c13.8,3.7,21.9,17.7,18.2,31.5
	l-68.4,256.9"/>
<path id="XMLID_41_" fill="#770039" d="M290.1,546.7L354.2,306c3.7-13.8-5-28-18.7-31.6s-28.3,4.4-32,18.1l-64.7,242.9
	c-29.5,4-55.6,25.3-63.8,55.9c-10.8,40.6,13.5,82.4,54,93.2s82.9-13.3,93.7-53.9C331.5,597.8,316.5,563.8,290.1,546.7z"/>
</svg>
