<?xml version="1.0" encoding="utf-8"?>
<!-- Generator: Adobe Illustrator 19.0.0, SVG Export Plug-In . SVG Version: 6.00 Build 0)  -->
<svg version="1.1" id="Layer_1" xmlns="http://www.w3.org/2000/svg" xmlns:xlink="http://www.w3.org/1999/xlink" x="0px" y="0px"
	 viewBox="0 0 512 512" style="enable-background:new 0 0 512 512;" xml:space="preserve">
<style type="text/css">
	.st0{fill:#FFFFFF;}
</style>
<g id="XMLID_18_">
	<g id="XMLID_48_">
		<path id="XMLID_49_" class="st0" d="M256.4,400.7c-79.8,0-144.7-64.9-144.7-144.7c0-79.8,64.9-144.6,144.7-144.6
			c79.8,0,144.6,64.9,144.6,144.6C401.1,335.8,336.2,400.7,256.4,400.7z M256.4,135.5c-66.5,0-120.6,54.1-120.6,120.6
			c0,66.5,54.1,120.6,120.6,120.6c66.5,0,120.6-54.1,120.6-120.6C377.1,189.6,322.9,135.5,256.4,135.5z"/>
	</g>
	<g id="XMLID_46_">
		<path id="XMLID_14_" class="st0" d="M256.4,71.3c-6.6,0-12-5.4-12-12V17.5c0-6.6,5.4-12,12-12c6.6,0,12,5.4,12,12v41.8
			C268.5,65.9,263.1,71.3,256.4,71.3z"/>
	</g>
	<g id="XMLID_44_">
		<path id="XMLID_13_" class="st0" d="M60.2,268.1H18.4c-6.6,0-12-5.4-12-12s5.4-12,12-12h41.8c6.6,0,12,5.4,12,12
			S66.8,268.1,60.2,268.1z"/>
	</g>
	<g id="XMLID_42_">
		<path id="XMLID_12_" class="st0" d="M428,439.7c-3.1,0-6.2-1.2-8.5-3.5l-32.8-32.8c-4.7-4.7-4.7-12.3,0-17c4.7-4.7,12.3-4.7,17,0
			l32.8,32.8c4.7,4.7,4.7,12.3,0,17C434.2,438.5,431.1,439.7,428,439.7z"/>
	</g>
	<g id="XMLID_40_">
		<path id="XMLID_11_" class="st0" d="M117.7,129.3c-3.1,0-6.1-1.2-8.5-3.5L76.3,93c-4.7-4.7-4.7-12.3,0-17c4.7-4.7,12.3-4.7,17,0
			l32.8,32.8c4.7,4.7,4.7,12.3,0,17C123.8,128.2,120.7,129.3,117.7,129.3z"/>
	</g>
	<g id="XMLID_38_">
		<path id="XMLID_10_" class="st0" d="M84.8,439.7c-3.1,0-6.1-1.2-8.5-3.5c-4.7-4.7-4.7-12.3,0-17l32.8-32.8c4.7-4.7,12.3-4.7,17,0
			c4.7,4.7,4.7,12.3,0,17l-32.8,32.8C91,438.5,87.9,439.7,84.8,439.7z"/>
	</g>
	<g id="XMLID_36_">
		<path id="XMLID_9_" class="st0" d="M395.2,129.4c-3.1,0-6.1-1.2-8.5-3.5c-4.7-4.7-4.7-12.3,0-17L419.5,76c4.7-4.7,12.3-4.7,17,0
			c4.7,4.7,4.7,12.3,0,17l-32.8,32.8C401.3,128.2,398.2,129.4,395.2,129.4z"/>
	</g>
	<g id="XMLID_19_">
		<g id="XMLID_34_">
			<path id="XMLID_8_" class="st0" d="M395.2,129.3c-3.1,0-6.2-1.2-8.5-3.5c-4.7-4.7-4.7-12.3,0-17L419.5,76c4.7-4.7,12.3-4.7,17,0
				c4.7,4.7,4.7,12.3,0,17l-32.8,32.8C401.3,128.2,398.3,129.3,395.2,129.3z"/>
		</g>
		<g id="XMLID_32_">
			<path id="XMLID_7_" class="st0" d="M84.8,439.7c-3.1,0-6.1-1.2-8.5-3.5c-4.7-4.7-4.7-12.3,0-17l32.8-32.8c4.7-4.7,12.3-4.7,17,0
				c4.7,4.7,4.7,12.3,0,17l-32.8,32.8C91,438.5,87.9,439.7,84.8,439.7z"/>
		</g>
		<g id="XMLID_30_">
			<path id="XMLID_6_" class="st0" d="M427.6,440.1c-3.1,0-6.2-1.2-8.5-3.5l-32.8-32.8c-4.7-4.7-4.7-12.3,0-17
				c4.7-4.7,12.3-4.7,17,0l32.8,32.8c4.7,4.7,4.7,12.3,0,17C433.8,438.9,430.7,440.1,427.6,440.1z"/>
		</g>
		<g id="XMLID_28_">
			<path id="XMLID_5_" class="st0" d="M117.3,129.8c-3.1,0-6.1-1.2-8.5-3.5L75.9,93.4c-4.7-4.7-4.7-12.3,0-17c4.7-4.7,12.3-4.7,17,0
				l32.8,32.8c4.7,4.7,4.7,12.3,0,17C123.4,128.6,120.3,129.8,117.3,129.8z"/>
		</g>
		<g id="XMLID_26_">
			<path id="XMLID_4_" class="st0" d="M256,506.5c-6.6,0-12-5.4-12-12v-41.8c0-6.6,5.4-12,12-12c6.6,0,12,5.4,12,12v41.8
				C268,501.1,262.6,506.5,256,506.5z"/>
		</g>
		<g id="XMLID_24_">
			<path id="XMLID_3_" class="st0" d="M256,72.3c-6.6,0-12-5.4-12-12V18.5c0-6.6,5.4-12,12-12c6.6,0,12,5.4,12,12v41.8
				C268,66.9,262.6,72.3,256,72.3z"/>
		</g>
		<g id="XMLID_22_">
			<path id="XMLID_2_" class="st0" d="M59.8,268.5H18c-6.6,0-12-5.4-12-12c0-6.6,5.4-12,12-12h41.8c6.6,0,12,5.4,12,12
				C71.8,263.1,66.4,268.5,59.8,268.5z"/>
		</g>
		<g id="XMLID_20_">
			<path id="XMLID_1_" class="st0" d="M494,268.5C494,268.5,494,268.5,494,268.5l-41.8,0c-6.6,0-12-5.4-12-12c0-6.6,5.4-12,12-12
				c0,0,0,0,0,0l41.8,0c6.6,0,12,5.4,12,12C506,263.1,500.6,268.5,494,268.5z"/>
		</g>
	</g>
</g>
</svg>
