<?xml version="1.0" encoding="utf-8"?>
<!-- Generator: Adobe Illustrator 19.0.0, SVG Export Plug-In . SVG Version: 6.00 Build 0)  -->
<svg version="1.1" id="Layer_1" xmlns="http://www.w3.org/2000/svg" xmlns:xlink="http://www.w3.org/1999/xlink" x="0px" y="0px"
	 viewBox="0 0 512 512" style="enable-background:new 0 0 512 512;" xml:space="preserve">
<style type="text/css">
	.st0{fill:#FFFFFF;}
</style>
<g id="XMLID_4_">
	<path id="XMLID_5_" class="st0" d="M256,505.1C118.1,505.1,6,393,6,255.1C6,128.5,100.8,21.8,226.5,7c6.5-0.9,12.9,2.6,15.8,8.5
		s1.9,13-2.6,17.8c-27.9,29.6-43.3,68.2-43.3,108.6c0,87.5,71.1,158.6,158.6,158.6c47.9,0,92.7-21.3,123-58.5
		c4.2-5.1,11.1-7.1,17.4-4.9c6.2,2.2,10.4,8.1,10.4,14.7c0.1,1.4,0.2,2.3,0.2,3.3C506,393,393.8,505.1,256,505.1z M191.1,46.3
		C101.1,74.1,37.3,157.9,37.3,255.1c0,120.6,98.1,218.7,218.7,218.7c108.1,0,198.1-78.8,215.7-182c-33,25.7-73.8,40-116.6,40
		c-104.7,0-189.9-85.2-189.9-189.9C165.2,108,174.2,75.1,191.1,46.3z"/>
</g>
</svg>
