<?xml version="1.0" encoding="utf-8"?>
<!-- Generator: Adobe Illustrator 19.0.0, SVG Export Plug-In . SVG Version: 6.00 Build 0)  -->
<svg version="1.1" id="Layer_1" xmlns="http://www.w3.org/2000/svg" xmlns:xlink="http://www.w3.org/1999/xlink" x="0px" y="0px"
	 viewBox="0 0 512 512" style="enable-background:new 0 0 512 512;" xml:space="preserve">
<style type="text/css">
	.st0{fill:#FFFFFF;}
</style>
<g id="XMLID_9_">
	<g>
		<path class="st0" d="M300.8,440.6H84.5C39.8,440.6,6,408.4,6,365.7c0-32.6,19.7-61.1,49.2-72.9c-0.4-3.1-0.7-6.2-0.7-9.4
			c0-36.1,29.4-65.5,65.5-65.5c12.3,0,24.1,3.4,34.3,9.7c17.4-26.6,47.3-43.1,79.6-43.1c52.4,0,95,42.6,95,95c0,2.6-0.3,5.8-0.6,8.9
			c30.1,11.3,51,40.7,51,73.5C379.3,405.3,344.1,440.6,300.8,440.6z M120.1,241.2c-23.3,0-42.2,18.9-42.2,42.2
			c0,4.6,0.7,9.2,2.2,13.5c1,3.1,0.7,6.5-0.8,9.4c-1.6,2.9-4.3,4.9-7.5,5.7c-25,5.9-42.4,28-42.4,53.8c0,29.4,23.8,51.6,55.3,51.6
			h216.3c30.5,0,55.3-24.8,55.3-55.3c0-25.6-18.1-48.3-43.1-53.9c-6-1.3-9.9-7.1-9-13.1c0-0.1,0-0.1,0-0.2
			c0.5-3.2,1.6-11.5,1.6-15.3c0-39.6-32.2-71.7-71.8-71.7c-28.1,0-53.8,16.5-65.4,42.1c-1.6,3.5-4.7,5.9-8.5,6.6
			c-3.7,0.7-7.6-0.5-10.3-3.2C141.8,245.6,131.2,241.2,120.1,241.2z"/>
	</g>
	<g>
		<path id="XMLID_6_" class="st0" d="M360.7,343.9c-4.3,0-8.4-2.4-10.5-6.5c-2.8-5.8-0.4-12.7,5.4-15.6
			c28.9-14.1,45.1-46.1,39.5-77.8c-3.4-19.1-14-35.7-29.8-46.8c-15.9-11.1-35.1-15.3-54.2-12c-16.2,2.9-30.6,10.9-41.5,23.1
			c-4.3,4.8-11.6,5.2-16.4,0.9c-4.8-4.3-5.2-11.6-0.9-16.4c14.4-16.2,33.4-26.8,54.8-30.6c25.2-4.5,50.6,1.2,71.6,15.8
			c21,14.7,35,36.6,39.4,61.8c7.4,41.9-14.1,84.1-52.2,102.7C364.1,343.5,362.4,343.9,360.7,343.9z"/>
	</g>
	<g>
		<path id="XMLID_5_" class="st0" d="M323.9,127.4c-6.4,0-11.6-5.2-11.6-11.6L312,83.1c0-6.4,5.1-11.7,11.6-11.7
			c6.1,0.1,11.7,5.1,11.7,11.6l0.2,32.7C335.5,122.1,330.4,127.3,323.9,127.4C323.9,127.4,323.9,127.4,323.9,127.4z"/>
	</g>
	<g>
		<path id="XMLID_4_" class="st0" d="M461.7,281.1c-6.4,0-11.6-5.2-11.6-11.6c0-6.4,5.1-11.7,11.6-11.7l32.7-0.2c0,0,0.1,0,0.1,0
			c6.4,0,11.6,5.2,11.6,11.6c0,6.4-5.1,11.7-11.6,11.7L461.7,281.1C461.7,281.1,461.7,281.1,461.7,281.1z"/>
	</g>
	<g>
		<path id="XMLID_3_" class="st0" d="M428,169c-3,0-5.9-1.1-8.2-3.4c-4.6-4.5-4.6-11.9-0.1-16.5l23-23.2c4.5-4.6,11.9-4.6,16.5-0.1
			c4.6,4.5,4.6,11.9,0.1,16.5l-23,23.2C434,167.8,431,169,428,169z"/>
	</g>
	<g>
		<path id="XMLID_2_" class="st0" d="M211.5,169c-3,0-6-1.2-8.3-3.5l-23-23.2c-4.5-4.6-4.5-11.9,0.1-16.5c4.6-4.5,11.9-4.5,16.5,0.1
			l23,23.2c4.5,4.6,4.5,11.9-0.1,16.5C217.5,167.9,214.5,169,211.5,169z"/>
	</g>
	<g>
		<path id="XMLID_1_" class="st0" d="M438.2,399.3c-3,0-6-1.2-8.3-3.5l-23-23.2c-4.5-4.6-4.5-11.9,0.1-16.5
			c4.6-4.5,11.9-4.5,16.5,0.1l23,23.2c4.5,4.6,4.5,11.9-0.1,16.5C444.1,398.2,441.1,399.3,438.2,399.3z"/>
	</g>
</g>
</svg>
