<?xml version="1.0" encoding="utf-8"?>
<!-- Generator: Adobe Illustrator 19.0.0, SVG Export Plug-In . SVG Version: 6.00 Build 0)  -->
<svg version="1.1" id="Layer_1" xmlns="http://www.w3.org/2000/svg" xmlns:xlink="http://www.w3.org/1999/xlink" x="0px" y="0px"
	 viewBox="0 0 512 512" style="enable-background:new 0 0 512 512;" xml:space="preserve">
<style type="text/css">
	.st0{fill:#FFFFFF;}
</style>
<g id="XMLID_1_">
	<g>
		<path class="st0" d="M351.1,455.9H96.7C45,455.9,6,418.7,6,369.5c0-38.1,23.4-71.4,58.1-84.7c-0.6-4-1-8-1-12.1
			c0-41.5,33.8-75.3,75.3-75.3c14.7,0,28.8,4.2,40.8,12c20-31.6,55.1-51.3,93.1-51.3c60.7,0,110.1,49.4,110.1,110.1
			c0,3.3-0.4,7.7-0.8,11.7c35.4,12.7,60.1,47,60.1,85.4C441.7,415.2,401.1,455.9,351.1,455.9z M138.5,221.4
			c-28.3,0-51.4,23-51.4,51.4c0,5.6,0.9,11.1,2.7,16.4c1.1,3.2,0.8,6.7-0.9,9.6c-1.6,2.9-4.4,5.1-7.7,5.8
			c-30.2,7.2-51.2,33.9-51.2,64.9c0,35.6,28.7,62.4,66.7,62.4h254.4c36.8,0,66.7-29.9,66.7-66.7c0-31-21.9-58.3-52-65.1
			c-6.1-1.4-10.2-7.3-9.2-13.5c0,0,0-0.1,0-0.1c0.4-2.6,1.9-13.2,1.9-18.3c0-47.5-38.6-86.1-86.1-86.1c-33.7,0-64.5,19.9-78.5,50.6
			c-1.6,3.6-4.9,6.1-8.7,6.8c-3.8,0.7-7.8-0.5-10.6-3.3C164.9,226.6,152.1,221.4,138.5,221.4z"/>
	</g>
	<g>
		<path id="XMLID_2_" class="st0" d="M383.9,283.6c-6.6,0-12-5.4-12-12c0-6.6,5.4-12,12-12c41.8,0,79.4-26.9,92.9-62.1
			c-12.6,6.8-26.9,10.5-41.7,10.5c-48.5,0-87.9-39.5-87.9-87.9c0-11.5,2.3-22.8,6.5-33.3c-32,12.8-52,40.5-52,74.7
			c0,6.6-5.4,12-12,12c-6.6,0-12-5.4-12-12c0-55.9,40.5-98.2,100.7-105.3c5-0.6,9.8,2,12.1,6.5c2.3,4.5,1.5,9.9-2,13.6
			c-11.3,12-17.5,27.5-17.5,43.8c0,35.3,28.7,64,64,64c19.3,0,37.4-8.6,49.6-23.6c3.2-3.9,8.4-5.4,13.2-3.7c4.8,1.6,8,6.1,8,11.1
			c0,0.5,0.1,1.1,0.1,1.6C506,230.3,448.9,283.6,383.9,283.6z"/>
	</g>
</g>
</svg>
