<?xml version="1.0" encoding="utf-8"?>
<!-- Generator: Adobe Illustrator 19.0.0, SVG Export Plug-In . SVG Version: 6.00 Build 0)  -->
<svg version="1.1" id="Layer_1" xmlns="http://www.w3.org/2000/svg" xmlns:xlink="http://www.w3.org/1999/xlink" x="0px" y="0px"
	 viewBox="0 0 512 512" style="enable-background:new 0 0 512 512;" xml:space="preserve">
<style type="text/css">
	.st0{fill:#FFFFFF;}
</style>
<g>
	<path class="st0" d="M403.2,426.2H108.8C50.2,426.2,6,384.1,6,328.3c0-43.8,27.2-82,67.5-96.6c-0.9-5-1.4-10.2-1.4-15.4
		c0-46.9,38.2-85.1,85.1-85.1c17.3,0,33.9,5.2,47.9,14.7c22.5-37,63.1-60.2,107.1-60.2c69.1,0,125.3,56.2,125.3,125.3
		c0,4.2-0.5,10-1.1,14.9c41,14,69.7,53.3,69.7,97.4C506,380,459.9,426.2,403.2,426.2z M157.2,154.8c-33.9,0-61.5,27.6-61.5,61.5
		c0,6.7,1.1,13.3,3.2,19.6c1.1,3.1,0.7,6.6-0.9,9.5c-1.6,2.9-4.4,5-7.6,5.7c-35.8,8.5-60.9,40.2-60.9,77.1
		c0,42.4,34.1,74.3,79.3,74.3h294.4c43.7,0,79.3-35.6,79.3-79.3c0-36.6-25.7-68.9-61.2-77.2c-5.6-0.9-9.8-5.8-9.8-11.6
		c0-0.6,0.1-1.3,0.2-1.9c0.6-4.1,2.3-15.8,2.3-21.5c0-56.1-45.6-101.7-101.7-101.7c-39.8,0-76.2,23.5-92.7,59.7
		c-1.5,3.3-4.4,5.7-7.9,6.6c-4,1-8.2-0.2-11.1-3C188.8,161.2,173.5,154.8,157.2,154.8z"/>
</g>
</svg>
