<?xml version="1.0" encoding="utf-8"?>
<!-- Generator: Adobe Illustrator 19.0.0, SVG Export Plug-In . SVG Version: 6.00 Build 0)  -->
<svg version="1.1" id="Layer_1" xmlns="http://www.w3.org/2000/svg" xmlns:xlink="http://www.w3.org/1999/xlink" x="0px" y="0px"
	 viewBox="0 0 512 512" style="enable-background:new 0 0 512 512;" xml:space="preserve">
<style type="text/css">
	.st0{fill:#FFFFFF;}
</style>
<g id="XMLID_1_">
	<g>
		<path class="st0" d="M347,351.6H95.6C44.5,351.6,6,314.9,6,266.3c0-37.7,23.1-70.5,57.4-83.7c-0.6-3.9-1-7.9-1-12
			c0-41,33.4-74.4,74.4-74.4c14.5,0,28.4,4.1,40.3,11.9c19.7-31.2,54.4-50.7,92-50.7c60,0,108.8,48.8,108.8,108.7
			c0,3.3-0.4,7.6-0.8,11.5c35,12.6,59.4,46.5,59.4,84.4C436.5,311.4,396.3,351.6,347,351.6z M136.9,119.9c-28,0-50.8,22.8-50.8,50.8
			c0,5.6,0.9,11,2.6,16.2c1.1,3.1,0.8,6.6-0.9,9.5c-1.6,2.9-4.4,5-7.6,5.8c-29.8,7.1-50.6,33.5-50.6,64.1
			c0,35.2,28.3,61.7,65.9,61.7H347c36.4,0,65.9-29.6,65.9-65.9c0-30.6-21.6-57.6-51.4-64.3c-6.1-1.4-10-7.2-9.1-13.3
			c0,0,0-0.1,0-0.1c0.4-2.6,1.9-13,1.9-18.1c0-46.9-38.2-85.1-85.1-85.1c-33.3,0-63.8,19.6-77.5,50c-1.6,3.5-4.8,6-8.6,6.7
			c-3.8,0.7-7.7-0.5-10.5-3.2C163,125.1,150.3,119.9,136.9,119.9z"/>
	</g>
	<g>
		<path id="XMLID_11_" class="st0" d="M446.5,197.9h-75.2c-6.5,0-11.8-5.3-11.8-11.8c0-6.5,5.3-11.8,11.8-11.8h75.2
			c19.7,0,35.8-16.1,35.8-35.8c0-16.6-11.7-31.3-27.9-34.9c-6.1-1.4-10-7.2-9.1-13.3c0,0,0-0.1,0-0.1c0.4-2.2,1.1-7.9,1.1-10.4
			c0-26.2-21.3-47.6-47.6-47.6c-18.6,0-35.6,11-43.3,27.9c-1.6,3.5-4.8,6-8.6,6.7c-3.8,0.7-7.7-0.5-10.5-3.2
			c-5-4.9-11.6-7.7-18.7-7.7c-11.3,0-21.4,7.2-25.1,17.9c-2.1,6.2-8.9,9.5-15,7.3c-6.2-2.1-9.5-8.8-7.3-15c7-20.3,26-33.9,47.5-33.9
			c8.3,0,16.2,2,23.3,5.7c13.2-18.3,34.7-29.5,57.7-29.5c39.3,0,71.2,31.9,71.2,71.2c0,1.2-0.1,2.6-0.2,4.1
			c21.4,9.2,36.1,30.7,36.1,54.7C506,171.2,479.3,197.9,446.5,197.9z"/>
	</g>
	<g>
		<path id="XMLID_10_" class="st0" d="M112.2,389c27.2,27.2,28.3,55.8,28.3,55.8c0,15.6-12.7,28.3-28.3,28.3S84,460.4,84,444.8
			C84,444.8,85,416.2,112.2,389z"/>
		<path class="st0" d="M112.2,477C94.5,477,80,462.5,80,444.8c0.1-1.4,1.5-30.6,29.4-58.6l2.8-2.8l2.8,2.8
			c27.9,27.9,29.4,57.2,29.4,58.4C144.4,462.5,130,477,112.2,477z M112.2,394.7c-23.1,24.9-24.3,50-24.3,50.3
			c0,13.3,10.9,24.2,24.3,24.2c13.4,0,24.3-10.9,24.3-24.3C136.5,444.7,135.2,419.4,112.2,394.7z"/>
	</g>
	<g>
		<path id="XMLID_7_" class="st0" d="M330.3,389c27.2,27.2,28.3,55.8,28.3,55.8c0,15.6-12.7,28.2-28.3,28.2
			c-15.6,0-28.2-12.7-28.2-28.2C302.1,444.8,303.2,416.2,330.3,389z"/>
		<path class="st0" d="M330.3,477c-17.7,0-32.2-14.4-32.2-32.2c0.1-1.4,1.5-30.6,29.4-58.6l2.8-2.8l2.8,2.8
			c27.9,27.9,29.4,57.2,29.4,58.4C362.5,462.5,348.1,477,330.3,477z M330.3,394.7c-23.1,24.9-24.3,50-24.3,50.3
			c0,13.3,10.9,24.2,24.3,24.2c13.4,0,24.3-10.9,24.3-24.3C354.6,444.7,353.3,419.4,330.3,394.7z"/>
	</g>
	<g>
		<path id="XMLID_4_" class="st0" d="M221.3,415.5c27.2,27.2,28.3,55.8,28.3,55.8c0,15.6-12.7,28.3-28.3,28.3S193,486.9,193,471.3
			C193,471.3,194.1,442.7,221.3,415.5z"/>
		<path class="st0" d="M221.3,503.5c-17.7,0-32.2-14.4-32.2-32.2c0.1-1.4,1.5-30.6,29.4-58.6l2.8-2.8l2.8,2.8
			c27.9,27.9,29.4,57.2,29.4,58.4C253.5,489,239,503.5,221.3,503.5z M221.3,421.2c-23,24.8-24.3,50-24.3,50.3
			c0,13.2,10.9,24.2,24.3,24.2c13.4,0,24.3-10.9,24.3-24.3C245.6,471.2,244.2,445.9,221.3,421.2z"/>
	</g>
</g>
</svg>
