<?xml version="1.0" encoding="utf-8"?>
<!-- Generator: Adobe Illustrator 19.0.0, SVG Export Plug-In . SVG Version: 6.00 Build 0)  -->
<svg version="1.1" id="Layer_1" xmlns="http://www.w3.org/2000/svg" xmlns:xlink="http://www.w3.org/1999/xlink" x="0px" y="0px"
	 viewBox="0 0 512 512" style="enable-background:new 0 0 512 512;" xml:space="preserve">
<style type="text/css">
	.st0{fill:#FFFFFF;}
</style>
<g id="XMLID_1_">
	<g>
		<path class="st0" d="M299.2,362.1H90.6c-43.2,0-75.8-31-75.8-72.2c0-31.5,19-59,47.5-70.3c-0.4-3-0.6-6-0.6-9
			c0-34.8,28.3-63.2,63.2-63.2c11.8,0,23.2,3.2,33.1,9.3c16.8-25.6,45.6-41.5,76.8-41.5c50.5,0,91.7,41.1,91.7,91.7
			c0,2.5-0.3,5.6-0.6,8.6c29,10.9,49.2,39.3,49.2,70.9C374.9,328.1,341,362.1,299.2,362.1z M124.9,169.8
			c-22.5,0-40.7,18.3-40.7,40.7c0,4.5,0.7,8.8,2.1,13c1,3,0.7,6.3-0.8,9c-1.5,2.8-4.2,4.7-7.2,5.5c-24.1,5.7-40.9,27-40.9,51.9
			c0,28.4,22.9,49.8,53.3,49.8h208.6c29.4,0,53.3-23.9,53.3-53.3c0-24.7-17.5-46.6-41.6-52c-5.7-1.3-9.5-6.8-8.6-12.6
			c0-0.1,0-0.1,0-0.1c0.5-3.1,1.6-11.1,1.6-14.8c0-38.2-31-69.2-69.2-69.2c-27.1,0-51.9,16-63.1,40.7c-1.5,3.3-4.6,5.7-8.2,6.4
			c-3.6,0.7-7.3-0.5-9.9-3.1C145.8,174,135.7,169.8,124.9,169.8z"/>
	</g>
	<g>
		<path id="XMLID_16_" class="st0" d="M356.9,268.8c-4.2,0-8.1-2.3-10.1-6.3c-2.7-5.6-0.4-12.3,5.2-15c27.9-13.6,43.5-44.5,38.1-75
			c-3.3-18.4-13.5-34.4-28.8-45.1c-15.3-10.7-33.9-14.8-52.3-11.6c-15.6,2.8-29.5,10.5-40,22.3c-4.1,4.6-11.2,5-15.8,0.9
			c-4.6-4.1-5-11.2-0.9-15.8c13.9-15.6,32.2-25.8,52.9-29.5c24.3-4.3,48.8,1.1,69,15.3c20.2,14.1,33.7,35.3,38,59.6
			c7.1,40.4-13.6,81.1-50.4,99.1C360.3,268.4,358.6,268.8,356.9,268.8z"/>
	</g>
	<g>
		<path id="XMLID_15_" class="st0" d="M321.5,60c-6.2,0-11.2-5-11.2-11.2L310,17.3c0-6.2,5-11.3,11.2-11.3c0,0,0,0,0.1,0
			c6.2,0,11.2,5,11.2,11.2l0.2,31.5C332.7,54.9,327.7,59.9,321.5,60C321.5,60,321.5,60,321.5,60z"/>
	</g>
	<g>
		<path id="XMLID_14_" class="st0" d="M454.4,208.2c-6.2,0-11.2-5-11.2-11.2c0-6.2,5-11.3,11.2-11.3l31.5-0.2c0,0,0.1,0,0.1,0
			c6.2,0,11.2,5,11.2,11.2c0,6.2-5,11.3-11.2,11.3L454.4,208.2C454.4,208.2,454.4,208.2,454.4,208.2z"/>
	</g>
	<g>
		<path id="XMLID_13_" class="st0" d="M421.9,100.1c-2.8,0-5.7-1.1-7.9-3.2c-4.4-4.4-4.5-11.5-0.1-15.9l22.1-22.4
			c4.4-4.4,11.5-4.4,15.9-0.1c4.4,4.4,4.5,11.5,0.1,15.9l-22.1,22.4C427.7,99,424.8,100.1,421.9,100.1z"/>
	</g>
	<g>
		<path id="XMLID_12_" class="st0" d="M213.1,100.1c-2.9,0-5.8-1.1-8-3.3L183,74.4c-4.4-4.4-4.3-11.5,0.1-15.9
			c4.4-4.4,11.5-4.3,15.9,0.1L221.1,81c4.4,4.4,4.3,11.5-0.1,15.9C218.8,99,216,100.1,213.1,100.1z"/>
	</g>
	<g>
		<path id="XMLID_11_" class="st0" d="M431.7,322.3c-2.9,0-5.8-1.1-8-3.3l-22.1-22.4c-4.4-4.4-4.3-11.5,0.1-15.9
			c4.4-4.4,11.5-4.3,15.9,0.1l22.1,22.4c4.4,4.4,4.3,11.5-0.1,15.9C437.4,321.2,434.6,322.3,431.7,322.3z"/>
	</g>
	<g>
		<path id="XMLID_10_" class="st0" d="M87.5,397.3c25.8,25.8,26.8,53,26.8,53c0,14.8-12,26.8-26.8,26.8c-14.8,0-26.8-12-26.8-26.8
			C60.6,450.3,61.7,423.1,87.5,397.3z"/>
		<path class="st0" d="M87.5,480.8c-16.8,0-30.6-13.7-30.6-30.6c0-1.3,1.4-29.1,27.9-55.6l2.6-2.6l2.6,2.6
			c26.5,26.5,27.9,54.3,27.9,55.5C118,467.1,104.3,480.8,87.5,480.8z M87.5,402.7c-21.9,23.6-23.1,47.5-23.1,47.7
			c0,12.6,10.4,22.9,23.1,22.9c12.7,0,23.1-10.4,23.1-23.1C110.5,450.2,109.3,426.2,87.5,402.7z"/>
	</g>
	<g>
		<path id="XMLID_7_" class="st0" d="M294.5,397.3c25.8,25.8,26.8,53,26.8,53c0,14.8-12,26.8-26.8,26.8c-14.8,0-26.8-12-26.8-26.8
			C267.7,450.3,268.7,423.1,294.5,397.3z"/>
		<path class="st0" d="M294.5,480.8c-16.8,0-30.6-13.7-30.6-30.6c0-1.3,1.4-29.1,27.9-55.6l2.6-2.6l2.6,2.6
			c26.5,26.5,27.9,54.3,27.9,55.5C325.1,467.1,311.3,480.8,294.5,480.8z M294.5,402.7c-21.9,23.6-23.1,47.5-23.1,47.7
			c0,12.6,10.4,22.9,23.1,22.9c12.7,0,23.1-10.4,23.1-23.1C317.6,450.2,316.3,426.2,294.5,402.7z"/>
	</g>
	<g>
		<path id="XMLID_4_" class="st0" d="M191,422.5c25.8,25.8,26.8,53,26.8,53c0,14.8-12,26.8-26.8,26.8c-14.8,0-26.8-12-26.8-26.8
			C164.2,475.4,165.2,448.3,191,422.5z"/>
		<path class="st0" d="M191,506c-16.8,0-30.6-13.7-30.6-30.6c0-1.3,1.4-29.1,27.9-55.6l2.6-2.6l2.6,2.6
			c26.5,26.5,27.9,54.3,27.9,55.5C221.5,492.3,207.8,506,191,506z M191,427.9c-21.8,23.5-23.1,47.5-23.1,47.7
			c0,12.6,10.4,22.9,23.1,22.9c12.7,0,23.1-10.4,23.1-23.1C214,475.3,212.8,451.4,191,427.9z"/>
	</g>
</g>
</svg>
