<?xml version="1.0" encoding="utf-8"?>
<!-- Generator: Adobe Illustrator 19.0.0, SVG Export Plug-In . SVG Version: 6.00 Build 0)  -->
<svg version="1.1" id="Layer_1" xmlns="http://www.w3.org/2000/svg" xmlns:xlink="http://www.w3.org/1999/xlink" x="0px" y="0px"
	 viewBox="0 0 512 512" style="enable-background:new 0 0 512 512;" xml:space="preserve">
<style type="text/css">
	.st0{fill:#FFFFFF;}
</style>
<g id="XMLID_1_">
	<g>
		<path class="st0" d="M342.9,371.5H110.3c-47.3,0-82.9-33.9-82.9-78.9c0-34.8,21.4-65.3,53.1-77.4c-0.6-3.6-0.9-7.3-0.9-11.1
			c0-38,30.9-68.9,68.9-68.9c13.4,0,26.3,3.8,37.3,11c18.3-28.9,50.4-46.9,85.1-46.9c55.5,0,100.6,45.1,100.6,100.6
			c0,3-0.3,7-0.8,10.7c32.4,11.6,55,43,55,78.1C425.8,334.3,388.6,371.5,342.9,371.5z M148.5,157.1c-25.9,0-47,21.1-47,47
			c0,5.1,0.8,10.2,2.4,15c1,2.9,0.7,6.1-0.8,8.8c-1.5,2.7-4,4.6-7,5.3c-27.6,6.5-46.8,31-46.8,59.4c0,32.5,26.2,57.1,61,57.1h232.6
			c33.6,0,61-27.4,61-61c0-28.3-20-53.3-47.6-59.5c-5.6-1.3-9.3-6.6-8.4-12.3c0,0,0-0.1,0-0.1c0.4-2.4,1.8-12.1,1.8-16.7
			c0-43.4-35.3-78.7-78.8-78.7c-30.8,0-59,18.2-71.7,46.2c-1.5,3.3-4.5,5.6-8,6.2c-3.5,0.6-7.1-0.5-9.7-3
			C172.7,161.9,161,157.1,148.5,157.1z"/>
	</g>
	<g>
		<path id="XMLID_11_" class="st0" d="M372.9,214c-6,0-10.9-4.9-10.9-10.9c0-6,4.9-10.9,10.9-10.9c38.2,0,72.6-24.6,84.9-56.8
			c-11.6,6.3-24.6,9.6-38.1,9.6c-44.3,0-80.4-36.1-80.4-80.4c0-10.6,2.1-20.9,6-30.4c-29.2,11.7-47.5,37-47.5,68.3
			c0,6-4.9,10.9-10.9,10.9s-10.9-4.9-10.9-10.9c0-51.1,37-89.8,92-96.3c4.6-0.6,9,1.8,11.1,5.9c2.1,4.1,1.3,9.1-1.8,12.4
			c-10.3,10.9-16,25.2-16,40.1c0,32.3,26.3,58.5,58.5,58.5c17.6,0,34.2-7.9,45.4-21.6c2.9-3.6,7.7-4.9,12.1-3.4
			c4.3,1.5,7.3,5.6,7.4,10.2c0,0.5,0.1,1,0.1,1.5C484.6,165.2,432.4,214,372.9,214z"/>
	</g>
	<g>
		<path id="XMLID_10_" class="st0" d="M125.7,400.1c25.1,25.1,26.1,51.6,26.1,51.6c0,14.4-11.7,26.1-26.1,26.1s-26.1-11.7-26.1-26.1
			C99.6,451.7,100.6,425.2,125.7,400.1z"/>
		<path class="st0" d="M125.7,481.5c-16.4,0-29.8-13.4-29.8-29.8c0-1.3,1.4-28.3,27.2-54.2l2.6-2.6l2.6,2.6
			c25.8,25.8,27.2,52.9,27.2,54.1C155.5,468.1,142.1,481.5,125.7,481.5z M125.7,405.3c-21.4,23-22.5,46.3-22.5,46.5
			c0,12.3,10.1,22.4,22.5,22.4c12.4,0,22.5-10.1,22.5-22.5C148.2,451.6,147,428.2,125.7,405.3z"/>
	</g>
	<g>
		<path id="XMLID_7_" class="st0" d="M327.5,400.1c25.1,25.1,26.2,51.6,26.2,51.6c0,14.4-11.7,26.1-26.2,26.1
			c-14.4,0-26.1-11.7-26.1-26.1C301.4,451.7,302.4,425.2,327.5,400.1z"/>
		<path class="st0" d="M327.5,481.5c-16.4,0-29.8-13.4-29.8-29.8c0-1.3,1.4-28.3,27.2-54.2l2.6-2.6l2.6,2.6
			c25.9,25.9,27.2,52.9,27.2,54.1C357.3,468.1,344,481.5,327.5,481.5z M327.5,405.3c-21.4,23-22.5,46.3-22.5,46.5
			c0,12.3,10.1,22.4,22.5,22.4c12.4,0,22.5-10.1,22.5-22.5C350,451.6,348.8,428.2,327.5,405.3z"/>
	</g>
	<g>
		<path id="XMLID_4_" class="st0" d="M226.6,424.6c25.1,25.1,26.1,51.6,26.1,51.6c0,14.4-11.7,26.1-26.1,26.1s-26.1-11.7-26.1-26.1
			C200.5,476.2,201.5,449.7,226.6,424.6z"/>
		<path class="st0" d="M226.6,506c-16.4,0-29.8-13.4-29.8-29.8c0-1.3,1.3-28.3,27.2-54.2l2.6-2.6l2.6,2.6
			c25.9,25.8,27.2,52.9,27.2,54.1C256.4,492.6,243,506,226.6,506z M226.6,429.8c-21.2,22.9-22.5,46.3-22.5,46.5
			c0,12.3,10.1,22.4,22.5,22.4c12.4,0,22.5-10.1,22.5-22.5C249.1,476.1,247.9,452.8,226.6,429.8z"/>
	</g>
</g>
</svg>
