<?xml version="1.0" encoding="utf-8"?>
<!-- Generator: Adobe Illustrator 19.0.0, SVG Export Plug-In . SVG Version: 6.00 Build 0)  -->
<svg version="1.1" id="Layer_1" xmlns="http://www.w3.org/2000/svg" xmlns:xlink="http://www.w3.org/1999/xlink" x="0px" y="0px"
	 viewBox="0 0 512 512" style="enable-background:new 0 0 512 512;" xml:space="preserve">
<style type="text/css">
	.st0{fill:#FFFFFF;}
</style>
<g id="XMLID_1_">
	<g>
		<path class="st0" d="M347,353.8H95.6C44.5,353.8,6,317.1,6,268.5c0-37.7,23.1-70.5,57.4-83.7c-0.6-3.9-1-7.9-1-12
			c0-41,33.4-74.4,74.4-74.4c14.5,0,28.4,4.1,40.3,11.9c19.7-31.2,54.4-50.7,92-50.7c60,0,108.8,48.8,108.8,108.7
			c0,3.3-0.4,7.6-0.8,11.5c35,12.6,59.4,46.5,59.4,84.4C436.5,313.6,396.3,353.8,347,353.8z M136.9,122.1c-28,0-50.8,22.8-50.8,50.8
			c0,5.6,0.9,11,2.6,16.2c1.1,3.1,0.8,6.6-0.9,9.5c-1.6,2.9-4.4,5-7.6,5.8c-29.8,7.1-50.6,33.5-50.6,64.1
			c0,35.2,28.3,61.7,65.9,61.7H347c36.4,0,65.9-29.6,65.9-65.9c0-30.6-21.6-57.6-51.4-64.3c-6.1-1.4-10-7.2-9.1-13.3
			c0,0,0-0.1,0-0.1c0.4-2.6,1.9-13,1.9-18.1c0-46.9-38.2-85.1-85.1-85.1c-33.3,0-63.8,19.6-77.5,50c-1.6,3.5-4.8,6-8.6,6.7
			c-3.8,0.7-7.7-0.5-10.5-3.2C163,127.3,150.3,122.1,136.9,122.1z"/>
	</g>
	<g>
		<path id="XMLID_5_" class="st0" d="M446.5,200.1h-75.2c-6.5,0-11.8-5.3-11.8-11.8c0-6.5,5.3-11.8,11.8-11.8h75.2
			c19.7,0,35.8-16.1,35.8-35.8c0-16.6-11.7-31.3-27.9-34.9c-6.1-1.4-10-7.2-9.1-13.3c0,0,0-0.1,0-0.1c0.4-2.2,1.1-7.9,1.1-10.4
			c0-26.2-21.3-47.6-47.6-47.6c-18.6,0-35.6,11-43.3,27.9c-1.6,3.5-4.8,6-8.6,6.7c-3.8,0.7-7.7-0.5-10.5-3.2
			c-5-4.9-11.6-7.7-18.7-7.7c-11.3,0-21.4,7.2-25.1,17.9c-2.1,6.2-8.9,9.5-15,7.3c-6.2-2.1-9.5-8.8-7.3-15c7-20.3,26-33.9,47.5-33.9
			c8.3,0,16.2,2,23.3,5.7c13.2-18.3,34.7-29.5,57.7-29.5c39.3,0,71.2,31.9,71.2,71.2c0,1.2-0.1,2.6-0.2,4.1
			c21.4,9.2,36.1,30.7,36.1,54.7C506,173.4,479.3,200.1,446.5,200.1z"/>
	</g>
	<g>
		<polygon id="XMLID_4_" class="st0" points="186.8,339 128.7,411.6 184.4,412.3 120,497.3 311.4,391.4 244.2,391 279.8,339 		"/>
		<path class="st0" d="M120,501.3c-1.1,0-2.2-0.5-3-1.4c-1.2-1.4-1.3-3.5-0.2-5l59.8-78.8l-48-0.6c-1.5,0-2.9-0.9-3.5-2.3
			c-0.6-1.4-0.5-3,0.5-4.1l58.1-72.6c0.7-0.9,1.9-1.5,3.1-1.5h93c1.5,0,2.8,0.8,3.5,2.1c0.7,1.3,0.6,2.9-0.2,4.1l-31.4,45.9
			l59.8,0.3c1.8,0,3.4,1.2,3.8,3c0.4,1.7-0.3,3.6-1.9,4.4L121.9,500.8C121.3,501.1,120.6,501.3,120,501.3z M136.8,407.8l47.7,0.6
			c1.5,0,2.8,0.9,3.5,2.2s0.5,2.9-0.4,4.1l-53.2,70.2l161.9-89.6l-52.1-0.3c-1.5,0-2.8-0.8-3.5-2.1c-0.7-1.3-0.6-2.9,0.2-4.1
			l31.3-45.8h-83.6L136.8,407.8z"/>
	</g>
</g>
</svg>
