<?xml version="1.0" encoding="utf-8"?>
<!-- Generator: Adobe Illustrator 19.0.0, SVG Export Plug-In . SVG Version: 6.00 Build 0)  -->
<svg version="1.1" id="Layer_1" xmlns="http://www.w3.org/2000/svg" xmlns:xlink="http://www.w3.org/1999/xlink" x="0px" y="0px"
	 viewBox="0 0 512 512" style="enable-background:new 0 0 512 512;" xml:space="preserve">
<style type="text/css">
	.st0{fill:#FFFFFF;}
</style>
<g id="XMLID_1_">
	<g>
		<path id="XMLID_11_" class="st0" d="M364.8,377.6c-5.4,0-10.2-3.7-11.5-9.1c-1.5-6.4,2.5-12.7,8.8-14.2
			c29.9-7,50.8-33.4,50.8-64.2c0-30.6-21.6-57.6-51.4-64.3c-6.1-1.4-10-7.2-9.1-13.3c0-0.1,0-0.1,0-0.2c0.4-2.6,1.9-13,1.9-18.1
			c0-46.9-38.2-85.1-85.1-85.1c-33.3,0-63.8,19.6-77.5,50c-1.6,3.5-4.8,6-8.6,6.7c-3.8,0.7-7.7-0.5-10.5-3.2
			c-9.6-9.5-22.3-14.7-35.7-14.7c-28,0-50.8,22.8-50.8,50.8c0,5.6,0.9,11,2.6,16.2c1.1,3.2,0.8,6.6-0.9,9.5c-1.6,2.9-4.4,5-7.6,5.8
			c-29.8,7.1-50.6,33.5-50.6,64.2c0,28.4,18.3,51.6,46.7,59.2c6.3,1.7,10.1,8.2,8.4,14.5c-1.7,6.3-8.2,10.1-14.5,8.4
			C31.8,366.1,6,333.2,6,294.3c0-37.7,23.1-70.6,57.4-83.7c-0.6-3.9-1-7.9-1-12c0-41,33.4-74.4,74.4-74.4c14.5,0,28.4,4.1,40.3,11.9
			c19.7-31.2,54.4-50.7,92-50.7c60,0,108.8,48.8,108.8,108.7c0,3.3-0.4,7.6-0.8,11.5c35,12.6,59.4,46.4,59.4,84.3
			c0,41.8-28.4,77.7-69.1,87.2C366.6,377.5,365.7,377.6,364.8,377.6z"/>
	</g>
	<g>
		<path id="XMLID_10_" class="st0" d="M446.5,219.2h-75.2c-6.5,0-11.8-5.3-11.8-11.8c0-6.5,5.3-11.8,11.8-11.8h75.2
			c19.7,0,35.8-16.1,35.8-35.8c0-16.6-11.7-31.3-27.9-34.9c-6.1-1.4-10-7.2-9.1-13.3c0,0,0-0.1,0-0.1c0.4-2.2,1.1-7.9,1.1-10.3
			c0-26.2-21.3-47.6-47.6-47.6c-18.6,0-35.6,11-43.3,27.9c-1.6,3.5-4.8,6-8.6,6.7c-3.8,0.7-7.7-0.5-10.5-3.2
			c-5-4.9-11.6-7.7-18.7-7.7c-11.3,0-21.4,7.2-25.1,17.9c-2.1,6.2-8.9,9.4-15,7.3c-6.2-2.1-9.5-8.9-7.3-15c7-20.3,26-33.9,47.5-33.9
			c8.3,0,16.2,2,23.3,5.7c13.2-18.3,34.7-29.5,57.7-29.5c39.3,0,71.2,31.9,71.2,71.2c0,1.2-0.1,2.6-0.2,4.1
			c21.4,9.2,36.1,30.7,36.1,54.7C506,192.5,479.3,219.2,446.5,219.2z"/>
	</g>
	<g>
		<g>
			<path id="XMLID_9_" class="st0" d="M223.6,482.2c-4.4,0-7.9-3.5-7.9-7.9V279.2c0-4.4,3.5-7.9,7.9-7.9c4.4,0,7.9,3.5,7.9,7.9
				v195.1C231.4,478.7,227.9,482.2,223.6,482.2z"/>
		</g>
		<g>
			<path id="XMLID_8_" class="st0" d="M321.1,384.6H126c-4.4,0-7.9-3.5-7.9-7.9s3.5-7.9,7.9-7.9h195.1c4.4,0,7.9,3.5,7.9,7.9
				S325.5,384.6,321.1,384.6z"/>
		</g>
		<g>
			<path id="XMLID_7_" class="st0" d="M141.8,412.9c-2,0-4-0.8-5.6-2.3c-3.1-3.1-3.1-8.1,0-11.1l22.7-22.7l-22.7-22.7
				c-3.1-3.1-3.1-8.1,0-11.1s8.1-3.1,11.1,0l28.3,28.3c1.5,1.5,2.3,3.5,2.3,5.6c0,2.1-0.8,4.1-2.3,5.6l-28.3,28.2
				C145.8,412.1,143.8,412.9,141.8,412.9z"/>
		</g>
		<g>
			<path id="XMLID_6_" class="st0" d="M305.3,412.9c-2,0-4-0.8-5.6-2.3l-28.3-28.2c-1.5-1.5-2.3-3.5-2.3-5.6s0.8-4.1,2.3-5.6
				l28.3-28.2c3.1-3.1,8.1-3.1,11.1,0s3.1,8.1,0,11.1l-22.7,22.7l22.7,22.7c3.1,3.1,3.1,8.1,0,11.1
				C309.4,412.1,307.4,412.9,305.3,412.9z"/>
		</g>
		<g>
			<path id="XMLID_5_" class="st0" d="M251.8,466.4c-2,0-4-0.8-5.6-2.3l-22.7-22.7l-22.7,22.7c-3.1,3.1-8.1,3.1-11.1,0
				c-3.1-3.1-3.1-8.1,0-11.1l28.3-28.3c1.5-1.5,3.5-2.3,5.6-2.3l0,0c2.1,0,4.1,0.8,5.6,2.3l28.2,28.3c3.1,3.1,3.1,8.1,0,11.1
				C255.8,465.6,253.8,466.4,251.8,466.4z"/>
		</g>
		<g>
			<path id="XMLID_4_" class="st0" d="M223.6,331.1c-2,0-4-0.8-5.6-2.3l-28.3-28.2c-3.1-3.1-3.1-8.1,0-11.1c3.1-3.1,8.1-3.1,11.1,0
				l22.7,22.7l22.7-22.7c3.1-3.1,8.1-3.1,11.1,0s3.1,8.1,0,11.1l-28.2,28.2C227.6,330.3,225.6,331.1,223.6,331.1z"/>
		</g>
		<g>
			<path id="XMLID_3_" class="st0" d="M154.6,453.6c-2,0-4-0.8-5.6-2.3c-3.1-3.1-3.1-8.1,0-11.1l137.9-138c3.1-3.1,8.1-3.1,11.1,0
				c3.1,3.1,3.1,8.1,0,11.1l-137.9,138C158.6,452.8,156.6,453.6,154.6,453.6z"/>
		</g>
		<g>
			<path id="XMLID_2_" class="st0" d="M292.5,453.6c-2,0-4-0.8-5.6-2.3L149,313.3c-3.1-3.1-3.1-8.1,0-11.1s8.1-3.1,11.1,0l137.9,138
				c3.1,3.1,3.1,8.1,0,11.1C296.6,452.8,294.6,453.6,292.5,453.6z"/>
		</g>
	</g>
</g>
</svg>
