<?xml version="1.0" encoding="utf-8"?>
<!-- Generator: Adobe Illustrator 19.0.0, SVG Export Plug-In . SVG Version: 6.00 Build 0)  -->
<svg version="1.1" id="Layer_1" xmlns="http://www.w3.org/2000/svg" xmlns:xlink="http://www.w3.org/1999/xlink" x="0px" y="0px"
	 viewBox="0 0 512 512" style="enable-background:new 0 0 512 512;" xml:space="preserve">
<style type="text/css">
	.st0{fill:#FFFFFF;}
</style>
<g id="XMLID_1_">
	<g>
		<path id="XMLID_5_" class="st0" d="M322.8,151.9c-16.3,0-32.7-6.2-45.1-18.6c-11.9-11.9-31.2-11.8-43,0c-0.7,0.7-1.4,1.3-2.2,1.9
			c-25,22.9-64,22.3-88.2-1.9c-11.8-11.8-31.2-11.9-43,0c-24.9,24.9-65.3,24.9-90.2,0c-6.5-6.5-6.5-17.1,0-23.6
			c6.5-6.5,17.1-6.5,23.6,0c11.9,11.9,31.2,11.9,43,0c24.9-24.9,65.3-24.9,90.2,0c11.9,11.8,31.2,11.8,43,0c0.7-0.7,1.4-1.3,2.2-1.9
			c25-22.9,64-22.3,88.2,1.9c11.9,11.8,31.2,11.8,43,0c24.9-24.9,65.3-24.9,90.2,0c11.9,11.8,31.2,11.8,43,0
			c6.5-6.5,17.1-6.5,23.6,0c6.5,6.5,6.5,17.1,0,23.6c-24.9,24.9-65.3,24.9-90.2,0c-11.8-11.8-31.2-11.9-43,0
			C355.4,145.7,339.1,151.9,322.8,151.9z"/>
	</g>
	<g>
		<path id="XMLID_4_" class="st0" d="M322.8,241.6c-16.3,0-32.7-6.2-45.1-18.6c-11.9-11.9-31.2-11.9-43,0c-0.7,0.7-1.4,1.3-2.2,1.9
			c-25,22.9-64,22.3-88.2-1.9c-11.8-11.9-31.2-11.8-43,0c-24.9,24.9-65.3,24.9-90.2,0c-6.5-6.5-6.5-17.1,0-23.6
			c6.5-6.5,17.1-6.5,23.6,0c11.9,11.9,31.2,11.9,43,0c24.9-24.9,65.3-24.9,90.2,0c11.9,11.8,31.2,11.8,43,0c0.7-0.7,1.4-1.3,2.2-1.9
			c25-22.9,64-22.3,88.2,1.9c11.9,11.8,31.2,11.8,43,0c24.9-24.9,65.3-24.9,90.2,0c11.9,11.8,31.2,11.8,43,0
			c6.5-6.5,17.1-6.5,23.6,0c6.5,6.5,6.5,17.1,0,23.6c-24.9,24.9-65.3,24.9-90.2,0c-11.8-11.9-31.2-11.8-43,0
			C355.4,235.4,339.1,241.6,322.8,241.6z"/>
	</g>
	<g>
		<path id="XMLID_3_" class="st0" d="M322.8,331.3c-16.3,0-32.7-6.2-45.1-18.6c-11.9-11.9-31.2-11.8-43,0c-0.7,0.7-1.4,1.3-2.2,1.9
			c-25,22.9-64,22.3-88.2-1.9c-11.8-11.8-31.2-11.9-43,0c-24.9,24.9-65.3,24.9-90.2,0c-6.5-6.5-6.5-17.1,0-23.6s17.1-6.5,23.6,0
			c11.9,11.9,31.2,11.9,43,0c24.9-24.9,65.3-24.9,90.2,0c11.9,11.8,31.2,11.8,43,0c0.7-0.7,1.4-1.3,2.2-1.9
			c25-22.9,64-22.3,88.2,1.9c11.9,11.8,31.2,11.8,43,0c24.9-24.9,65.3-24.9,90.2,0c11.9,11.8,31.2,11.8,43,0
			c6.5-6.5,17.1-6.5,23.6,0c6.5,6.5,6.5,17.1,0,23.6c-24.9,24.9-65.3,24.9-90.2,0c-11.8-11.8-31.2-11.9-43,0
			C355.4,325.1,339.1,331.3,322.8,331.3z"/>
	</g>
	<g>
		<path id="XMLID_2_" class="st0" d="M322.8,420.9c-16.3,0-32.7-6.2-45.1-18.6c-11.9-11.9-31.2-11.8-43,0c-0.7,0.7-1.4,1.3-2.2,1.9
			c-25,22.9-64,22.3-88.2-1.9c-11.8-11.8-31.2-11.9-43,0c-24.9,24.9-65.3,24.9-90.2,0c-6.5-6.5-6.5-17.1,0-23.6s17.1-6.5,23.6,0
			c11.9,11.9,31.2,11.9,43,0c24.9-24.9,65.3-24.9,90.2,0c11.9,11.8,31.2,11.8,43,0c0.7-0.7,1.4-1.3,2.2-1.9
			c25-22.9,64-22.3,88.2,1.9c11.9,11.8,31.2,11.8,43,0c24.9-24.9,65.3-24.9,90.2,0c11.9,11.8,31.2,11.8,43,0
			c6.5-6.5,17.1-6.5,23.6,0c6.5,6.5,6.5,17.1,0,23.6c-24.9,24.9-65.3,24.9-90.2,0c-11.8-11.8-31.2-11.9-43,0
			C355.4,414.7,339.1,420.9,322.8,420.9z"/>
	</g>
</g>
</svg>
